<?xml version="1.0" standalone="no"?>
<!DOCTYPE svg PUBLIC "-//W3C//DTD SVG 20010904//EN"
 "http://www.w3.org/TR/2001/REC-SVG-20010904/DTD/svg10.dtd">
<svg version="1.0" xmlns="http://www.w3.org/2000/svg"
 width="1024.000000pt" height="1024.000000pt" viewBox="0 0 1024.000000 1024.000000"
 preserveAspectRatio="xMidYMid meet">

<g transform="translate(0.000000,1024.000000) scale(0.100000,-0.100000)"
fill="#000000" stroke="none">
<path d="M0 5120 l0 -5120 5120 0 5120 0 0 5120 0 5120 -5120 0 -5120 0 0
-5120z m5813 2635 c136 -146 335 -265 526 -313 39 -10 73 -21 76 -24 6 -6
-274 -246 -390 -334 -147 -110 -311 -194 -415 -210 -39 -6 -40 -6 -40 23 0 17
-16 62 -35 100 -59 119 -165 201 -302 234 -27 7 -52 15 -57 20 -11 10 43 74
197 235 62 66 164 174 227 242 62 67 116 122 119 122 3 0 46 -43 94 -95z
m-583 -725 c76 -39 120 -113 120 -200 0 -94 -46 -164 -135 -206 -63 -30 -116
-30 -181 0 -121 56 -166 194 -103 318 51 99 193 141 299 88z m335 -427 c3 -21
20 -99 36 -173 66 -287 56 -344 -105 -650 -25 -47 -64 -140 -86 -207 -46 -135
-72 -168 -149 -192 -75 -22 -125 -12 -223 47 l-58 34 0 403 c0 221 3 435 6
476 l7 74 111 1 c88 0 122 4 164 21 72 29 146 87 189 150 31 46 41 53 69 53
30 0 34 -3 39 -37z m-462 -1369 l38 -7 -3 -71 -3 -71 -39 -3 c-22 -2 -50 -1
-63 2 -22 6 -23 11 -23 81 l0 75 28 0 c15 0 44 -3 65 -6z m119 -319 c24 -9 61
-32 81 -53 45 -46 123 -204 145 -290 30 -123 -12 -220 -118 -274 -46 -24 -65
-28 -140 -28 -147 0 -249 -37 -386 -142 -132 -100 -122 -98 -402 -98 -206 0
-249 3 -279 16 -42 21 -66 55 -66 96 0 50 21 58 164 58 l127 0 59 44 c33 25
108 98 169 163 60 65 148 159 196 210 55 58 99 116 119 155 17 35 41 74 53 86
58 64 181 89 278 57z m-884 -1515 c111 -56 166 -145 167 -270 0 -62 -5 -85
-28 -132 -50 -103 -146 -168 -258 -176 -56 -4 -75 -1 -122 21 -151 69 -228
226 -183 378 38 134 141 208 292 209 59 0 81 -5 132 -30z m-1734 8 c90 -27
144 -123 133 -234 -14 -136 -113 -214 -273 -214 l-73 0 -3 -67 -3 -68 -54 -3
c-37 -2 -57 1 -62 10 -5 7 -9 142 -9 301 l0 287 151 0 c91 0 168 -5 193 -12z
m829 1 c44 -12 111 -68 134 -113 20 -39 19 -125 -2 -170 -9 -20 -35 -52 -57
-72 l-40 -36 31 -41 c53 -71 83 -127 77 -142 -4 -11 -21 -15 -59 -15 -61 0
-64 3 -141 113 l-48 67 -64 0 -64 0 0 -84 c0 -92 -3 -96 -65 -96 -69 0 -65
-19 -65 306 l0 294 163 0 c89 0 179 -5 200 -11z m1900 -11 c15 -25 61 -135
160 -385 75 -189 75 -196 -12 -191 l-53 3 -22 55 -22 55 -136 3 -135 3 -22
-61 -22 -61 -57 3 c-56 3 -57 4 -60 34 -3 28 102 305 191 507 l26 57 75 0 c68
0 77 -2 89 -22z m869 12 c70 -20 130 -70 165 -138 28 -55 33 -74 33 -136 0
-40 -7 -93 -16 -119 -21 -63 -83 -130 -152 -164 -52 -26 -68 -28 -190 -31 -94
-3 -137 0 -147 8 -12 10 -15 54 -15 255 0 133 3 263 6 289 l7 46 136 0 c75 0
153 -5 173 -10z m1129 -25 c24 -17 57 -49 73 -72 56 -80 44 -199 -27 -280 -48
-55 -80 -67 -197 -73 l-105 -5 -3 -68 -3 -68 -57 3 -57 3 -3 298 -2 299 169
-4 169 -3 43 -30z m897 -27 l-3 -63 -92 -3 -93 -3 0 -222 c0 -160 -3 -226 -12
-235 -16 -16 -100 -16 -116 0 -9 9 -12 75 -12 235 l0 222 -92 3 -93 3 -3 63
-3 62 261 0 261 0 -3 -62z m240 18 c25 -24 24 -65 -2 -91 -32 -31 -50 -31 -81
0 -32 31 -32 59 0 91 26 26 55 26 83 0z m-3674 -317 c56 -26 58 -111 3 -137
-57 -27 -116 24 -102 87 6 30 37 61 62 61 7 0 23 -5 37 -11z m1902 -12 c56
-48 23 -131 -52 -131 -71 0 -97 72 -45 125 36 35 61 37 97 6z"/>
<path d="M5105 4763 c-60 -15 -103 -83 -90 -142 7 -32 49 -75 83 -86 38 -11
86 3 120 36 26 26 32 39 32 74 0 76 -73 135 -145 118z"/>
<path d="M4130 3278 c-60 -31 -90 -77 -90 -140 0 -65 24 -114 71 -145 33 -22
47 -25 99 -21 153 11 213 166 107 276 -52 54 -118 65 -187 30z"/>
<path d="M2392 3198 l3 -103 65 3 c100 6 140 34 140 102 0 68 -48 100 -152
100 l-59 0 3 -102z"/>
<path d="M3200 3210 l0 -80 73 0 c84 1 146 13 158 32 17 27 10 78 -16 103 -22
23 -32 25 -120 25 l-95 0 0 -80z"/>
<path d="M5226 3238 c-8 -24 -25 -68 -36 -98 -30 -82 -31 -80 60 -80 44 0 80
3 80 6 0 9 -82 214 -86 214 -1 0 -9 -19 -18 -42z"/>
<path d="M6010 3131 l0 -171 63 0 c120 1 191 58 191 155 0 108 -67 173 -190
183 l-64 5 0 -172z"/>
<path d="M7076 3259 c-3 -17 -6 -62 -6 -100 l0 -69 70 0 c78 0 133 18 149 48
21 38 13 88 -18 121 -28 30 -32 31 -109 31 l-79 0 -7 -31z"/>
<path d="M8396 3364 c-10 -9 -14 -23 -11 -33 4 -9 8 -23 9 -31 2 -10 15 -15
37 -16 l34 -2 -35 6 -35 5 29 6 c37 8 55 34 40 59 -15 23 -48 27 -68 6z m41
-10 c-3 -3 -12 -4 -19 -1 -8 3 -5 6 6 6 11 1 17 -2 13 -5z m-4 -35 c-8 -8 -13
-7 -18 2 -5 8 -4 10 3 5 7 -4 12 -2 12 5 0 7 3 9 7 6 4 -4 2 -12 -4 -18z"/>
</g>
</svg>
