<svg width="500" height="142" viewBox="0 0 500 142" fill="none" xmlns="http://www.w3.org/2000/svg">
<g clip-path="url(#clip0_1_2)">
<path d="M145.048 70.232C149.4 70.232 152.824 69.048 155.32 66.68C157.88 64.312 159.16 61.048 159.16 56.888C159.16 51 157.656 46.2 154.648 42.488C151.704 38.712 147.384 36.824 141.688 36.824C137.336 36.824 133.368 38.072 129.784 40.568V99.128L144.664 103.256L142.744 107.096H108.76V104.12L117.784 97.016V38.648L107.8 35.384L109.72 31.544H120.856C127.064 31.544 133.176 31.352 139.192 30.968C143.672 30.712 146.968 30.584 149.08 30.584C153.56 30.584 157.528 31.544 160.984 33.464C164.504 35.32 167.224 37.912 169.144 41.24C171.064 44.568 172.024 48.248 172.024 52.28C172.024 56.76 170.392 60.984 167.128 64.952C163.864 68.92 159.704 72.024 154.648 74.264C149.592 76.504 144.632 77.496 139.768 77.24L135.256 73.976L137.176 70.136H144.952L145.048 70.232ZM211.985 107.192C209.425 107.704 206.353 107.96 202.769 107.96C198.545 107.96 194.737 106.872 191.345 104.696C188.017 102.456 185.393 99.448 183.473 95.672C181.617 91.896 180.689 87.736 180.689 83.192C180.689 78.264 182.193 73.656 185.201 69.368C188.209 65.016 191.953 61.56 196.433 59C200.977 56.376 205.361 55.064 209.585 55.064C215.665 55.064 220.369 57.464 223.697 62.264C227.089 67.064 228.785 73.4 228.785 81.272H193.265C193.649 86.712 195.121 91.16 197.681 94.616C200.305 98.072 203.857 99.8 208.337 99.8C212.497 99.8 218.417 96.568 226.097 90.104L228.977 93.752L211.985 107.192ZM204.017 63.128C197.105 63.128 193.489 67.864 193.169 77.336H215.633C215.057 73.88 214.449 71.256 213.809 69.464C213.233 67.608 212.177 66.104 210.641 64.952C209.169 63.736 206.961 63.128 204.017 63.128ZM271.848 96.632C271.848 94.84 270.856 93.208 268.872 91.736C266.888 90.2 263.848 88.376 259.752 86.264C256.424 84.536 253.736 83.032 251.688 81.752C249.64 80.472 247.88 79 246.408 77.336C245 75.608 244.296 73.752 244.296 71.768C244.296 69.464 245.256 67 247.176 64.376C249.096 61.752 251.464 59.544 254.28 57.752C257.096 55.96 259.72 55.064 262.152 55.064C265.096 55.064 268.488 55.448 272.328 56.216C276.232 56.92 279.048 57.72 280.776 58.616V73.4H277.128C275.08 69.432 272.712 66.36 270.024 64.184C267.336 61.944 264.584 60.824 261.768 60.824C259.784 60.824 258.184 61.368 256.968 62.456C255.752 63.48 255.144 64.792 255.144 66.392C255.144 68.376 256.168 70.168 258.216 71.768C260.328 73.304 263.496 75.128 267.72 77.24C270.984 78.904 273.608 80.344 275.592 81.56C277.576 82.776 279.24 84.216 280.584 85.88C281.992 87.48 282.696 89.272 282.696 91.256C282.696 93.624 281.672 96.12 279.624 98.744C277.64 101.304 275.176 103.48 272.232 105.272C269.352 107.064 266.696 107.96 264.264 107.96C261.128 107.96 257.384 107.608 253.032 106.904C248.744 106.136 245.672 105.304 243.816 104.408V89.624H247.464C249.704 93.592 252.36 96.696 255.432 98.936C258.504 101.112 261.608 102.2 264.744 102.2C266.856 102.2 268.552 101.656 269.832 100.568C271.176 99.48 271.848 98.168 271.848 96.632ZM321.921 107.192C320.449 107.704 318.657 107.96 316.545 107.96C311.233 107.96 307.329 106.584 304.833 103.832C302.401 101.016 301.185 96.696 301.185 90.872V62.84H290.817V58.904L309.057 37.688H312.705V58.904H329.985V62.84H312.705V92.024C312.705 97.208 315.201 99.8 320.193 99.8C321.537 99.8 322.817 99.512 324.033 98.936C325.313 98.36 326.881 97.336 328.737 95.864L331.617 99.512L321.921 107.192ZM367.741 55.064C371.965 55.064 375.741 56.184 379.069 58.424C382.461 60.6 385.085 63.576 386.941 67.352C388.861 71.128 389.821 75.288 389.821 79.832C389.821 84.76 388.317 89.4 385.309 93.752C382.301 98.04 378.525 101.496 373.981 104.12C369.501 106.68 365.149 107.96 360.925 107.96C356.701 107.96 352.893 106.872 349.501 104.696C346.173 102.456 343.549 99.448 341.629 95.672C339.773 91.896 338.845 87.736 338.845 83.192C338.845 78.264 340.349 73.656 343.357 69.368C346.365 65.016 350.109 61.56 354.589 59C359.133 56.376 363.517 55.064 367.741 55.064ZM362.173 63.128C354.941 63.128 351.325 68.28 351.325 78.584C351.325 84.664 352.637 89.752 355.261 93.848C357.885 97.88 361.629 99.896 366.493 99.896C373.725 99.896 377.341 94.712 377.341 84.344C377.341 78.328 376.029 73.304 373.405 69.272C370.781 65.176 367.037 63.128 362.173 63.128Z" fill="white"/>
</g>
<defs>
<clipPath id="clip0_1_2">
<rect width="500" height="142" fill="white"/>
</clipPath>
</defs>
</svg>
