<?xml version="1.0" standalone="no"?>
<!DOCTYPE svg PUBLIC "-//W3C//DTD SVG 20010904//EN"
 "http://www.w3.org/TR/2001/REC-SVG-20010904/DTD/svg10.dtd">
<svg version="1.0" xmlns="http://www.w3.org/2000/svg"
 width="500.000000pt" height="500.000000pt" viewBox="0 0 500.000000 500.000000"
 preserveAspectRatio="xMidYMid meet">

<g transform="translate(0.000000,500.000000) scale(0.100000,-0.100000)"
fill="#000000" stroke="none">
<path d="M0 2500 l0 -2500 2500 0 2500 0 0 2500 0 2500 -2500 0 -2500 0 0
-2500z m2821 1834 c19 -23 4 -69 -80 -244 -95 -198 -143 -332 -176 -494 -26
-131 -50 -389 -42 -458 4 -37 -65 -752 -79 -817 -4 -18 -8 -21 -13 -12 -6 10
-10 10 -16 2 -4 -7 -90 106 -211 276 -112 158 -227 319 -256 357 -29 37 -156
164 -283 281 -126 116 -268 252 -314 300 -245 260 -324 456 -251 622 l18 42
39 -10 c69 -18 276 -126 398 -207 150 -100 300 -221 467 -375 71 -66 130 -118
132 -116 2 2 50 74 107 159 58 85 181 259 275 385 94 127 186 253 204 281 35
52 55 59 81 28z m-2385 -684 c656 -58 1198 -453 1468 -1068 48 -111 110 -290
95 -274 -7 6 -17 12 -22 12 -4 0 -5 -6 -1 -12 5 -7 -3 -5 -16 5 -144 104 -287
178 -620 321 -284 123 -579 266 -695 339 -299 186 -445 384 -445 602 l0 74 43
4 c23 2 51 4 62 5 11 1 70 -3 131 -8z m1799 -1975 c74 -27 148 -105 165 -174
36 -150 -39 -283 -183 -326 -30 -9 -91 -15 -149 -15 l-98 0 0 -180 0 -180 -55
0 -55 0 0 451 0 451 163 -5 c121 -3 174 -9 212 -22z m1565 -185 l0 -100 50 0
50 0 0 -50 0 -50 -50 0 -50 0 0 -245 0 -245 -50 0 -50 0 0 245 0 245 -50 0
-50 0 0 50 0 50 50 0 50 0 0 100 0 100 50 0 50 0 0 -100z m-905 -121 c86 -43
128 -116 142 -241 l6 -58 -236 0 -236 0 6 -32 c29 -157 213 -208 329 -93 l42
43 36 -24 c20 -14 36 -29 36 -34 0 -20 -61 -77 -111 -105 -62 -33 -175 -45
-246 -26 -60 16 -121 67 -156 130 -26 47 -32 68 -35 142 -8 162 54 267 184
315 62 23 179 15 239 -17z m539 15 c49 -17 120 -77 114 -96 -2 -6 -20 -20 -40
-32 l-37 -21 -28 27 c-69 66 -193 62 -193 -6 0 -33 33 -59 142 -110 142 -68
187 -132 159 -226 -24 -82 -93 -129 -190 -130 -96 0 -168 36 -221 110 l-21 29
41 26 40 25 30 -34 c57 -65 143 -85 194 -45 36 28 36 76 -2 112 -15 14 -61 40
-101 57 -92 37 -139 72 -157 116 -60 143 96 257 270 198z m962 -17 c59 -30
108 -82 138 -146 30 -67 29 -187 -3 -259 -29 -65 -104 -134 -168 -156 -60 -21
-157 -20 -219 1 -71 24 -157 112 -178 183 -21 69 -20 144 1 211 23 73 109 161
179 183 74 24 186 16 250 -17z"/>
<path d="M1970 1425 l0 -167 103 4 c159 5 217 45 225 155 3 48 0 64 -20 92
-45 67 -67 76 -194 79 l-114 4 0 -167z"/>
<path d="M2668 1290 c-40 -22 -73 -62 -83 -103 l-7 -27 172 0 173 0 -7 31
c-20 100 -148 152 -248 99z"/>
<path d="M4165 1284 c-72 -38 -108 -100 -108 -189 0 -63 17 -110 57 -153 85
-95 257 -68 316 48 36 71 22 198 -28 253 -49 54 -172 75 -237 41z"/>
</g>
</svg>
