<?xml version="1.0" standalone="no"?>
<!DOCTYPE svg PUBLIC "-//W3C//DTD SVG 20010904//EN"
 "http://www.w3.org/TR/2001/REC-SVG-20010904/DTD/svg10.dtd">
<svg version="1.0" xmlns="http://www.w3.org/2000/svg"
 width="572.000000pt" height="572.000000pt" viewBox="0 0 572.000000 572.000000"
 preserveAspectRatio="xMidYMid meet">

<g transform="translate(0.000000,572.000000) scale(0.100000,-0.100000)"
fill="#000000" stroke="none">
<path d="M3127 5550 c-33 -10 -81 -45 -157 -115 -30 -27 -48 -41 -40 -30 13
17 11 17 -15 -3 -65 -49 -80 -64 -62 -58 11 4 16 2 12 -5 -4 -5 -15 -7 -25 -4
-12 4 -22 -1 -29 -12 -6 -10 -11 -14 -11 -9 0 5 -7 3 -15 -4 -13 -11 -13 -15
-3 -22 9 -6 6 -7 -8 -3 -15 4 -24 0 -28 -10 -4 -13 -10 -14 -26 -5 -11 6 -26
8 -32 4 -7 -4 -21 -9 -32 -10 -87 -8 -198 -30 -233 -46 -48 -23 -57 -32 -77
-80 -13 -29 -13 -39 -1 -61 7 -14 10 -28 7 -32 -4 -3 1 -3 11 1 9 3 14 11 11
18 -4 6 8 -3 26 -20 34 -33 36 -41 46 -159 3 -38 7 -71 9 -73 2 -2 -3 -29 -10
-60 -7 -31 -12 -107 -11 -169 0 -62 -3 -106 -7 -100 -5 7 -6 4 -2 -8 3 -11 8
-102 11 -202 3 -166 7 -221 20 -293 3 -14 7 -36 9 -49 l3 -23 -21 21 c-15 13
-27 17 -36 12 -11 -7 -10 -14 8 -36 11 -15 21 -22 21 -15 0 19 28 -8 46 -44
l16 -31 -26 30 c-31 37 -34 25 -4 -15 11 -16 26 -26 31 -23 6 4 7 1 2 -6 -8
-14 33 -63 46 -55 10 6 152 -71 169 -91 7 -8 19 -15 27 -15 7 0 16 -7 19 -15
5 -12 10 -13 20 -4 18 15 156 8 162 -9 4 -13 33 -17 30 -4 -3 15 16 48 49 85
30 34 33 42 33 105 0 37 5 85 10 108 5 23 12 56 15 75 2 19 10 57 15 84 11 49
22 162 23 217 0 15 3 25 7 23 5 -3 8 5 7 18 0 29 10 102 22 158 5 24 12 64 15
87 5 42 30 141 43 172 9 19 10 29 12 63 0 16 5 25 11 22 5 -3 12 4 14 17 3 13
12 55 20 93 27 128 33 208 21 295 -5 40 -4 43 8 25 25 -37 47 -105 47 -145 0
-22 -9 -73 -20 -113 -54 -195 -119 -507 -107 -507 10 0 106 303 136 427 31
131 37 147 52 137 5 -3 17 12 26 33 12 29 17 70 17 168 1 116 -1 135 -21 171
-56 105 -190 159 -306 124z m-117 -184 c0 -3 -4 -8 -10 -11 -5 -3 -10 -1 -10
4 0 6 5 11 10 11 6 0 10 -2 10 -4z m54 -21 c-17 -27 -40 -34 -31 -11 4 11 1
13 -10 9 -11 -4 -14 -3 -9 6 4 6 16 9 27 6 11 -4 19 -2 19 4 0 6 5 11 10 11 6
0 3 -11 -6 -25z m-104 1 c0 -3 -4 -8 -10 -11 -5 -3 -10 -1 -10 4 0 6 5 11 10
11 6 0 10 -2 10 -4z m79 -38 c13 -10 27 -15 30 -12 3 4 0 9 -7 11 -13 5 -7 23
9 23 6 0 7 -4 4 -10 -3 -5 -1 -10 5 -10 6 0 1 -14 -11 -31 l-22 -31 23 12 c15
8 20 8 16 1 -4 -6 -2 -11 4 -11 6 0 8 -5 4 -11 -4 -8 -9 -7 -15 2 -19 31 -8
-12 13 -48 21 -36 21 -37 1 -18 -11 11 -18 25 -15 30 3 6 -1 5 -7 -1 -10 -9
-10 -18 3 -40 8 -16 15 -25 16 -21 0 5 5 5 10 2 6 -4 8 -11 5 -16 -4 -5 -17
-2 -31 7 -24 16 -33 7 -13 -13 8 -8 7 -13 -2 -18 -8 -6 -10 -4 -4 5 5 9 4 11
-4 6 -6 -4 -10 -15 -9 -24 4 -22 31 -50 42 -44 5 3 6 0 2 -6 -4 -6 -13 -9 -21
-6 -8 4 -13 9 -10 13 2 4 -2 8 -10 8 -19 0 -19 -4 4 -33 10 -13 22 -20 26 -16
5 4 5 2 1 -5 -4 -7 -13 -10 -21 -7 -8 4 -12 11 -8 18 4 6 -1 5 -11 -3 -13 -11
-14 -16 -5 -22 14 -8 22 -39 10 -39 -4 0 -12 5 -19 12 -8 8 -12 8 -12 1 0 -6
7 -16 15 -23 19 -16 10 -31 -13 -23 -15 6 -15 5 -2 -11 27 -34 20 -45 -16 -24
-36 21 -49 12 -14 -10 12 -7 18 -18 14 -24 -5 -7 -2 -9 8 -6 8 4 15 0 15 -7 0
-11 -6 -11 -30 1 -16 9 -30 14 -32 12 -6 -6 55 -55 61 -49 4 3 4 1 0 -6 -5
-10 -13 -10 -34 0 -15 6 -29 14 -32 17 -3 3 -22 16 -42 29 -44 26 -46 29 -15
26 41 -4 42 -5 27 -16 -13 -9 -13 -10 0 -6 8 2 15 10 15 18 0 8 5 20 9 28 7
11 -1 23 -28 47 -25 22 -33 34 -25 40 8 5 9 3 4 -6 -6 -10 -4 -12 9 -7 10 4
15 3 11 -3 -3 -6 -3 -10 2 -11 4 0 16 -2 26 -4 24 -5 21 4 -10 31 l-27 23 34
-4 33 -4 -27 27 c-25 27 -26 42 -2 42 6 0 5 -4 -3 -9 -9 -6 -5 -8 13 -8 26 0
26 0 10 18 -15 17 -15 19 0 25 9 3 13 10 10 16 -3 5 -15 1 -27 -9 -18 -16 -17
-14 3 15 13 17 28 32 34 32 5 0 0 10 -11 23 -21 23 -21 53 0 40 7 -3 3 4 -8
17 -18 21 -18 23 -2 17 11 -4 16 -3 12 4 -4 6 -14 8 -22 5 -11 -4 -13 -2 -9 9
3 8 4 15 2 15 -3 0 -13 3 -23 6 -15 5 -15 4 -3 -5 19 -13 0 -14 -20 -1 -13 8
-11 11 7 16 14 4 20 11 16 22 -5 12 -1 14 25 9 17 -4 34 -2 37 3 4 6 -1 7 -11
3 -12 -4 -15 -3 -10 6 9 14 42 6 75 -21z m-199 2 c0 -5 -5 -10 -11 -10 -5 0
-7 5 -4 10 3 6 8 10 11 10 2 0 4 -4 4 -10z m39 -9 c9 -6 10 -11 2 -15 -6 -4
-11 -2 -11 4 0 6 -4 8 -10 5 -5 -3 -10 -1 -10 4 0 13 10 14 29 2z m-59 -21 c0
-5 8 -7 18 -3 13 4 14 3 6 -6 -6 -6 -18 -9 -27 -5 -18 7 -23 24 -7 24 6 0 10
-4 10 -10z m-30 -20 c8 -5 11 -12 8 -16 -4 -3 -14 1 -23 10 -18 17 -9 21 15 6z
m-8 -32 c16 -5 25 -14 22 -20 -3 -5 -12 -7 -20 -4 -8 3 -14 1 -14 -4 0 -13 37
-13 45 0 4 6 11 5 19 -3 8 -6 11 -16 8 -21 -3 -5 2 -7 11 -3 11 4 14 2 10 -9
-3 -9 0 -12 9 -9 9 4 14 -2 15 -15 2 -18 0 -18 -25 5 -15 14 -30 25 -35 25 -4
0 -5 5 -1 12 4 7 3 8 -4 4 -13 -8 -5 -36 10 -36 6 0 8 -7 5 -14 -4 -11 -1 -13
10 -9 10 4 14 2 10 -4 -4 -6 -1 -14 5 -17 7 -3 2 -3 -12 1 -22 5 -23 4 -12
-10 8 -9 11 -21 7 -26 -3 -7 0 -8 10 -5 11 5 14 2 8 -12 -5 -13 -3 -15 7 -9 9
5 11 4 6 -3 -5 -9 -13 -9 -29 -1 -22 12 -22 12 -3 -10 11 -12 20 -31 21 -42 2
-18 0 -18 -23 3 l-25 23 13 -25 c7 -14 18 -28 23 -32 6 -3 12 -13 13 -22 2
-13 -1 -13 -23 2 -25 16 -26 16 -15 -5 6 -11 8 -24 4 -28 -4 -5 0 -6 9 -3 9 4
16 1 16 -8 0 -12 -4 -12 -23 1 -31 20 -41 19 -21 -3 10 -10 14 -22 10 -25 -3
-4 0 -7 7 -7 9 0 8 -6 -5 -20 -10 -11 -14 -20 -8 -20 5 0 10 -7 10 -15 0 -13
-2 -13 -17 0 -21 19 -36 20 -20 0 13 -15 5 -39 -11 -30 -18 12 -8 -7 16 -30
19 -16 22 -25 14 -31 -8 -5 -9 -3 -4 6 6 10 4 12 -9 7 -10 -4 -15 -3 -11 3 3
6 -1 7 -10 4 -14 -6 -14 -8 0 -24 17 -18 11 -32 -11 -23 -8 3 -14 1 -14 -5 0
-6 5 -12 12 -14 14 -5 21 -45 8 -53 -5 -3 -7 -13 -4 -23 5 -13 4 -14 -4 -3 -6
8 -12 9 -16 3 -3 -6 -1 -16 6 -24 25 -27 19 -39 -9 -21 l-28 17 20 -24 c11
-14 24 -28 29 -31 4 -4 4 -9 -1 -12 -6 -4 -19 0 -29 8 -10 8 -23 14 -29 14 -5
0 -2 -4 8 -10 9 -5 24 -23 32 -39 l15 -29 -37 21 -38 22 37 -36 c20 -20 34
-38 31 -41 -15 -16 -126 81 -176 153 l-31 44 32 -23 c17 -12 35 -27 39 -34 5
-7 21 -23 38 -37 19 -16 15 -9 -13 23 -24 26 -40 52 -37 58 5 6 12 5 23 -3 13
-11 15 -11 7 2 -4 8 -13 21 -19 29 -5 7 -11 20 -12 28 -2 11 3 9 20 -6 27 -25
45 -28 25 -3 -8 9 -20 28 -28 42 -13 24 -13 24 5 9 10 -9 26 -20 34 -24 16 -9
12 -4 -29 47 -8 9 -16 25 -17 35 -2 16 -1 16 14 -2 10 -11 26 -27 37 -35 17
-13 16 -11 -3 17 -13 18 -27 35 -32 38 -6 4 -10 14 -10 23 0 11 10 7 37 -19
l37 -34 -25 35 c-14 19 -31 45 -38 58 -11 21 -11 22 8 10 11 -6 17 -16 14 -22
-3 -5 -1 -6 4 -3 6 4 13 0 17 -8 3 -8 10 -15 16 -15 5 0 -6 23 -26 50 -20 28
-33 50 -30 50 11 0 21 -5 19 -10 0 -3 10 -14 25 -24 25 -19 25 -16 -7 33 -23
35 -25 62 -3 36 10 -11 26 -27 37 -35 19 -14 19 -14 5 5 -8 11 -22 29 -32 41
-10 11 -21 32 -23 45 -4 23 -4 23 10 5 8 -10 12 -23 8 -29 -4 -6 -1 -7 7 -2 8
5 18 1 27 -10 7 -11 13 -15 13 -11 0 4 -10 22 -22 39 -24 34 -37 75 -15 47 7
-8 21 -22 31 -30 18 -13 19 -13 11 0 -4 8 -17 25 -27 36 -15 16 -16 24 -7 29
8 6 10 4 4 -5 -5 -9 -4 -11 4 -6 6 4 20 2 29 -5 15 -12 15 -12 0 7 -30 34 -20
60 12 32 7 -7 4 0 -8 16 -17 22 -19 32 -11 42 9 11 8 18 0 28 -8 10 -9 16 -1
21 5 3 10 1 10 -4 0 -6 8 -11 18 -11 13 1 11 5 -10 21 -16 11 -28 26 -28 32 0
8 3 7 9 -2 7 -10 10 -10 16 -1 4 7 1 17 -6 22 -14 10 -10 9 53 -14z m48 18 c0
-3 -4 -8 -10 -11 -5 -3 -10 -1 -10 4 0 6 5 11 10 11 6 0 10 -2 10 -4z m119
-25 c8 -5 9 -11 3 -15 -14 -8 -43 4 -36 15 7 11 15 11 33 0z m-79 -5 c0 -3 -4
-8 -10 -11 -5 -3 -10 -1 -10 4 0 6 5 11 10 11 6 0 10 -2 10 -4z m-160 -27 c0
-14 -17 -10 -23 5 -4 10 -1 13 9 9 7 -3 14 -9 14 -14z m-19 -19 c6 0 7 -4 4
-10 -3 -5 1 -10 10 -10 9 0 13 -5 9 -11 -4 -7 -15 -2 -31 15 -13 14 -28 26
-34 26 -6 0 -7 5 -4 10 4 6 12 4 21 -5 9 -8 20 -15 25 -15z m-66 2 c-3 -3 -11
0 -18 7 -9 10 -8 11 6 5 10 -3 15 -9 12 -12z m338 -34 c-2 -5 -9 -8 -14 -8 -6
0 -7 5 -4 10 3 6 1 10 -5 10 -6 0 -8 4 -5 10 4 6 11 5 19 -3 8 -6 12 -15 9
-19z m-330 -8 c9 -11 13 -20 9 -20 -4 0 -15 9 -25 20 -9 11 -13 20 -9 20 4 0
15 -9 25 -20z m281 -12 c-5 -8 -1 -9 12 -4 14 5 16 4 7 -5 -13 -13 -37 -3 -28
12 4 5 8 9 11 9 3 0 2 -5 -2 -12z m-206 -17 c3 -8 -1 -12 -9 -9 -7 2 -15 10
-17 17 -3 8 1 12 9 9 7 -2 15 -10 17 -17z m-18 -26 c0 -15 -21 -12 -30 5 -11
20 -10 21 9 10 12 -6 21 -13 21 -15z m239 -174 c9 -6 10 -11 2 -15 -13 -8 -31
1 -31 15 0 11 11 11 29 0z m-39 -77 c0 -8 -19 -13 -24 -6 -3 5 1 9 9 9 8 0 15
-2 15 -3z m101 -66 c7 -13 5 -16 -10 -13 -31 6 -62 29 -56 43 3 7 0 10 -5 7
-13 -8 -32 4 -24 16 7 12 83 -30 95 -53z m-167 1 c-3 -5 -10 -7 -15 -3 -5 3
-7 10 -3 15 3 5 10 7 15 3 5 -3 7 -10 3 -15z m81 -9 c-6 -9 -9 -9 -16 1 -10
17 0 34 13 21 6 -6 7 -16 3 -22z m79 -37 c3 -7 1 -15 -5 -18 -5 -4 -12 1 -15
9 -3 9 -9 14 -14 11 -12 -8 -44 21 -36 34 8 13 62 -14 70 -36z m-39 -19 c41
-31 37 -51 -6 -29 -16 9 -27 20 -24 25 3 6 -1 7 -9 4 -9 -4 -18 1 -22 10 -3 9
-11 13 -17 9 -6 -3 -7 -1 -3 5 10 16 41 7 81 -24z m3 -60 c5 -9 12 -15 15 -15
4 1 7 -1 7 -4 0 -7 -10 -4 -37 8 -12 5 -20 14 -16 20 3 6 1 7 -5 3 -14 -8 -64
23 -56 35 7 11 80 -26 92 -47z m-98 10 c0 -8 -19 -13 -24 -6 -3 5 1 9 9 9 8 0
15 -2 15 -3z m14 -16 c-5 -7 -2 -9 8 -6 18 7 82 -31 86 -51 2 -9 -14 -4 -45
14 -26 15 -51 30 -56 32 -7 4 0 23 9 23 3 0 2 -5 -2 -12z m-265 -12 c8 -9 8
-16 2 -20 -6 -4 -15 3 -21 14 -12 23 2 27 19 6z m338 -73 c3 -7 8 -11 12 -8 4
2 8 -2 8 -9 0 -10 -6 -10 -28 3 -15 8 -25 20 -22 25 3 5 1 6 -5 2 -14 -9 -64
23 -56 35 6 11 84 -30 91 -48z m-127 31 c0 -8 -19 -13 -24 -6 -3 5 1 9 9 9 8
0 15 -2 15 -3z m53 -37 c-3 -6 -1 -7 5 -3 15 9 64 -23 55 -37 -4 -6 0 -8 9 -5
8 4 15 0 15 -8 0 -7 -3 -12 -6 -10 -53 27 -130 80 -126 86 3 5 16 4 30 -2 13
-6 22 -15 18 -21z m-258 -32 c11 -12 48 -45 82 -74 35 -30 60 -58 57 -62 -5
-8 10 -13 29 -10 5 1 6 -3 2 -9 -8 -13 -66 20 -115 67 -20 18 -39 33 -43 33
-6 0 41 -45 115 -109 9 -8 15 -18 12 -23 -6 -10 -46 15 -97 59 -20 18 -40 33
-44 33 -4 0 -3 -4 2 -8 6 -5 38 -32 72 -62 66 -56 76 -83 18 -49 -38 23 -129
118 -146 153 -9 18 -8 19 3 5 7 -8 21 -18 32 -22 16 -6 15 -3 -6 25 -42 56
-43 63 -3 32 l39 -29 -39 55 c-30 43 -34 51 -15 35 14 -10 34 -29 45 -40z
m192 20 c0 -8 -4 -12 -9 -9 -5 3 -6 10 -3 15 9 13 12 11 12 -6z m130 -70 c3
-8 10 -12 16 -8 6 3 7 1 3 -5 -5 -9 -16 -7 -39 5 -54 27 -77 45 -71 54 7 12
83 -28 91 -46z m-20 -27 c16 -13 7 -29 -12 -22 -8 4 -12 11 -8 17 3 5 1 7 -5
3 -13 -8 -84 33 -76 45 5 8 73 -21 101 -43z m-49 -17 c12 -7 20 -16 17 -21 -3
-6 0 -8 7 -5 7 3 24 -4 38 -15 20 -16 22 -20 8 -20 -10 0 -18 5 -18 12 0 6 -3
9 -6 5 -11 -10 -65 23 -58 35 5 7 2 9 -8 5 -9 -3 -24 1 -35 8 -17 13 -16 13 7
11 14 -2 35 -8 48 -15z m-81 -16 c0 -8 -4 -12 -9 -9 -5 3 -6 10 -3 15 9 13 12
11 12 -6z m167 7 c3 -5 -1 -9 -9 -9 -8 0 -12 4 -9 9 3 4 7 8 9 8 2 0 6 -4 9
-8z m-262 -110 c40 -29 52 -48 38 -57 -12 -7 -101 65 -141 116 l-34 44 50 -38
c28 -20 67 -49 87 -65z m231 46 c5 1 6 -2 3 -7 -4 -5 0 -12 6 -14 8 -3 5 -6
-5 -6 -25 -1 -108 49 -101 60 3 5 24 -1 47 -13 23 -12 46 -21 50 -20z m-359 6
c3 -8 2 -12 -4 -9 -6 3 -10 10 -10 16 0 14 7 11 14 -7z m355 -59 c-2 -6 -11
-9 -21 -9 -24 2 -89 44 -83 54 8 12 108 -32 104 -45z m-237 -38 c21 -19 40
-32 43 -28 3 3 3 -2 0 -12 -9 -21 -23 -14 -87 43 -53 46 -69 86 -20 52 15 -11
44 -36 64 -55z m128 47 c0 -8 -19 -13 -24 -6 -3 5 1 9 9 9 8 0 15 -2 15 -3z
m86 -39 c6 -8 13 -12 16 -9 3 2 8 -2 11 -10 5 -11 -5 -10 -44 6 -27 11 -49 25
-49 30 0 5 -5 6 -12 2 -6 -4 -8 -3 -4 4 8 14 67 -2 82 -23z m-214 -58 c15 -14
30 -22 34 -18 4 3 4 0 0 -6 -4 -7 -3 -13 1 -13 5 0 18 -7 29 -15 14 -12 9 -11
-21 2 -22 10 -47 23 -55 30 -59 46 -78 65 -83 83 -5 18 -1 17 31 -9 21 -16 49
-40 64 -54z m148 48 c0 8 77 -33 84 -44 7 -11 -8 -9 -56 9 -21 8 -38 18 -38
23 0 4 -4 6 -9 3 -5 -3 -12 1 -15 9 -4 13 -2 14 14 5 11 -6 20 -8 20 -5z
m-220 -41 c0 4 16 -6 35 -23 19 -17 48 -37 64 -45 16 -9 31 -22 35 -31 5 -13
2 -13 -27 1 -17 9 -46 27 -64 40 -17 13 -34 24 -38 24 -15 0 11 -24 72 -64 35
-24 60 -47 54 -50 -5 -4 -14 2 -20 11 -6 10 -11 15 -11 10 0 -14 -75 31 -105
64 -16 17 -25 29 -18 25 20 -11 25 12 7 41 -14 24 -14 25 0 9 9 -11 16 -16 16
-12z m-39 -11 c13 -16 12 -17 -3 -4 -10 7 -18 15 -18 17 0 8 8 3 21 -13z m327
-26 c2 -4 7 -5 12 -2 4 3 10 -1 13 -9 4 -11 -2 -11 -35 1 -58 20 -79 33 -73
43 6 9 77 -19 83 -33z m-337 -14 c13 -16 12 -17 -3 -4 -17 13 -22 21 -14 21 2
0 10 -8 17 -17z m330 -14 c11 -5 17 -14 14 -20 -4 -5 -13 -5 -26 1 -10 6 -19
8 -19 5 0 -3 -13 1 -30 10 -16 9 -30 17 -30 20 0 7 72 -5 91 -16z m-332 -43
c-3 -3 -11 5 -18 17 -13 21 -12 21 5 5 10 -10 16 -20 13 -22z m49 16 c2 -7 8
-10 13 -6 5 3 9 0 9 -5 0 -6 7 -11 15 -11 8 0 15 -4 15 -8 0 -5 18 -18 40 -31
22 -12 40 -25 40 -27 0 -3 -4 -2 -10 1 -5 3 -19 8 -31 10 -33 7 -87 44 -94 66
-4 10 -10 17 -15 14 -5 -3 -11 -1 -14 4 -4 5 2 8 11 7 9 -2 19 -8 21 -14z
m269 -10 c10 -6 22 -10 26 -10 5 0 12 -3 15 -7 13 -13 -55 3 -84 19 l-29 16
27 -4 c14 -2 35 -9 45 -14z m-93 -10 c3 -5 -1 -9 -9 -9 -8 0 -12 4 -9 9 3 4 7
8 9 8 2 0 6 -4 9 -8z m-192 -62 c9 3 37 -13 33 -19 -2 -4 1 -8 8 -8 7 -1 37
-11 67 -23 30 -12 61 -22 68 -23 6 0 12 -4 12 -9 0 -9 -32 -5 -62 7 -11 4 -18
3 -18 -4 0 -6 3 -10 8 -10 16 3 72 -14 72 -22 0 -9 -42 -5 -59 5 -5 4 -13 1
-17 -5 -4 -8 -3 -9 4 -5 7 4 12 3 12 -2 0 -16 -13 -21 -31 -12 -12 7 -20 6
-25 -2 -4 -6 -3 -8 2 -5 6 3 16 2 23 -2 10 -7 10 -14 -4 -37 l-16 -29 6 30 c5
26 4 28 -8 14 -11 -15 -16 -15 -37 -3 l-25 14 30 -7 c26 -5 28 -4 18 9 -7 8
-10 17 -7 21 3 3 -8 13 -25 22 -36 18 -41 30 -8 21 15 -4 6 10 -33 45 l-55 51
52 -37 c28 -20 62 -38 75 -40 22 -3 22 -3 4 8 -11 7 -30 22 -43 34 -13 12 -23
19 -23 16 0 -3 -11 6 -25 21 -14 15 -25 30 -25 34 0 4 12 -5 25 -21 13 -15 26
-27 27 -27z m288 29 c0 -5 -10 -7 -22 -5 -13 3 -27 5 -31 5 -5 1 -6 5 -3 10 7
10 56 2 56 -10z m-222 -17 c23 -12 42 -27 42 -32 0 -6 5 -9 11 -7 6 1 14 -5
16 -13 4 -12 3 -12 -5 -2 -5 8 -13 13 -18 13 -18 -2 -60 18 -89 43 -36 29 -17
29 43 -2z m220 -11 c14 -4 22 -10 17 -13 -15 -8 -76 12 -70 23 4 5 11 7 16 3
6 -3 22 -9 37 -13z m-83 -21 c3 -6 -1 -7 -9 -4 -18 7 -21 14 -7 14 6 0 13 -4
16 -10z m95 -20 c0 -4 -11 -5 -25 -2 -14 2 -25 8 -25 12 0 4 11 5 25 2 14 -2
25 -8 25 -12z m-50 -20 c11 -8 8 -9 -14 -6 -16 3 -31 8 -34 11 -10 9 33 5 48
-5z m0 -30 c11 -8 8 -9 -14 -6 -16 3 -31 8 -34 11 -10 9 33 5 48 -5z m-205
-32 c5 4 5 1 1 -5 -6 -10 -13 -10 -36 2 -16 8 -32 20 -36 27 -4 6 8 2 28 -10
19 -12 39 -18 43 -14z m-69 -9 c3 -6 -5 -3 -20 6 -14 10 -26 19 -26 22 0 7 39
-17 46 -28z m271 -19 c-12 -22 -26 -40 -30 -40 -5 0 1 16 13 35 12 19 17 35
12 35 -5 0 -17 -16 -28 -35 -16 -31 -17 -37 -4 -45 12 -7 10 -9 -6 -8 -25 2
-25 9 0 58 l17 35 -27 -30 c-20 -22 -25 -25 -20 -10 4 15 -1 12 -19 -10 -18
-21 -23 -24 -18 -10 6 18 5 19 -12 5 -17 -14 -17 -14 -2 16 13 26 20 30 46 26
19 -2 31 0 31 7 0 6 15 11 34 11 l34 0 -21 -40z m32 6 c-7 -14 -16 -26 -21
-26 -5 0 -1 13 8 30 21 35 30 33 13 -4z m-239 -36 c8 -5 11 -10 5 -10 -5 0
-17 5 -25 10 -8 5 -10 10 -5 10 6 0 17 -5 25 -10z m120 -67 c0 -21 -3 -24 -9
-14 -5 8 -7 20 -4 28 8 21 13 15 13 -14z m30 -8 c0 -8 -2 -15 -4 -15 -2 0 -6
7 -10 15 -3 8 -1 15 4 15 6 0 10 -7 10 -15z m33 -5 c3 -11 3 -20 1 -20 -2 0
-8 9 -14 20 -6 11 -7 20 -2 20 6 0 12 -9 15 -20z m135 -23 c14 6 15 5 2 -9
-15 -16 -31 -7 -29 17 0 6 3 5 5 -2 3 -7 13 -9 22 -6z m-108 -26 c7 -14 7 -22
-2 -27 -6 -4 -8 -3 -4 4 3 6 -1 18 -10 26 -8 9 -11 16 -5 16 6 0 15 -9 21 -19z
m43 -21 c-10 -11 -19 -20 -21 -20 -1 0 2 9 8 20 6 11 15 20 20 20 6 0 2 -9 -7
-20z m28 -3 c-10 -9 -11 -8 -5 6 3 10 9 15 12 12 3 -3 0 -11 -7 -18z m39 -18
c12 -9 12 -10 -4 -5 -11 4 -24 0 -33 -11 -13 -16 -13 -16 -3 5 12 25 18 26 40
11z"/>
<path d="M2792 4858 c5 -15 28 -23 28 -10 0 5 -7 13 -16 16 -10 4 -14 1 -12
-6z"/>
<path d="M2743 4631 c1 -11 7 -17 14 -14 17 7 17 20 -1 26 -10 4 -14 0 -13
-12z"/>
<path d="M2782 3578 c6 -18 28 -21 28 -4 0 9 -7 16 -16 16 -9 0 -14 -5 -12
-12z"/>
<path d="M2832 3555 c-28 -32 -28 -51 1 -59 28 -7 127 4 127 15 0 5 -6 6 -14
3 -8 -3 -17 0 -21 6 -8 13 14 42 26 34 5 -3 9 2 9 10 0 10 -9 16 -25 16 -16 0
-25 -6 -25 -15 0 -8 -4 -15 -9 -15 -5 0 -16 7 -25 15 -19 19 -19 19 -44 -10z"/>
<path d="M2768 3513 c7 -3 16 -2 19 1 4 3 -2 6 -13 5 -11 0 -14 -3 -6 -6z"/>
<path d="M2778 3453 c0 -15 -1 -35 0 -43 0 -8 -5 -18 -11 -23 -7 -5 -3 -6 11
-2 17 5 22 2 22 -13 0 -10 11 -29 25 -42 l25 -23 25 23 c31 29 32 46 4 61 -17
9 -20 17 -16 45 4 20 2 32 -4 29 -5 -4 -9 -14 -9 -24 0 -9 -7 -26 -15 -37 -13
-16 -16 -17 -25 -4 -5 8 -10 27 -10 42 0 37 -20 47 -22 11z"/>
<path d="M2918 3473 c-13 -3 -18 -14 -17 -41 1 -46 10 -67 29 -68 12 -1 16 12
17 57 0 33 -2 58 -5 58 -4 -1 -15 -3 -24 -6z"/>
<path d="M2910 3320 c0 -5 10 -10 23 -10 18 0 19 2 7 10 -19 13 -30 13 -30 0z"/>
<path d="M2975 3233 c4 -15 2 -23 -5 -23 -6 0 -8 -4 -5 -10 9 -15 22 -12 29 7
4 10 0 23 -10 32 -15 15 -16 14 -9 -6z"/>
<path d="M2670 3224 c-17 -19 -33 -95 -33 -157 0 -33 -3 -44 -9 -35 -17 24 3
-85 23 -124 10 -20 35 -49 54 -64 29 -22 42 -26 76 -21 58 8 65 18 45 67 -18
46 -22 170 -5 201 13 26 -12 69 -41 69 -11 0 -20 4 -20 9 0 5 8 7 19 4 26 -7
37 37 14 55 -24 18 -108 16 -123 -4z m10 -109 c0 -8 -7 -15 -16 -15 -14 0 -14
3 -4 15 7 8 14 15 16 15 2 0 4 -7 4 -15z m63 -5 c-5 -19 -23 -29 -23 -12 0 7
20 32 26 32 1 0 0 -9 -3 -20z m48 -41 c-5 -13 -10 -19 -10 -12 -1 15 10 45 15
40 3 -2 0 -15 -5 -28z"/>
<path d="M2933 3224 c-3 -8 -1 -20 5 -26 7 -7 10 -2 9 16 -2 30 -5 32 -14 10z"/>
<path d="M2990 3163 c-27 -10 -61 -47 -76 -82 -18 -44 -18 -60 3 -83 21 -23 9
-36 -37 -41 -35 -4 -51 -26 -42 -60 8 -30 64 -19 80 16 18 37 32 34 32 -8 0
-28 4 -36 24 -41 54 -13 119 52 132 132 15 94 -52 190 -116 167z m-27 -118
c-3 -9 -8 -14 -10 -11 -3 3 -2 9 2 15 9 16 15 13 8 -4z m69 -47 c-7 -7 -12 -8
-12 -2 0 6 3 14 7 17 3 4 9 5 12 2 2 -3 -1 -11 -7 -17z"/>
<path d="M2752 2789 c2 -7 10 -15 17 -17 8 -3 12 1 9 9 -2 7 -10 15 -17 17 -8
3 -12 -1 -9 -9z"/>
<path d="M2910 2791 c-19 -5 -26 -14 -28 -40 -4 -40 -23 -36 -36 7 -11 38 -26
42 -26 7 0 -14 8 -29 20 -35 11 -6 20 -17 20 -25 0 -8 -9 -15 -20 -15 -11 0
-20 -4 -20 -10 0 -5 -4 -10 -10 -10 -5 0 -9 5 -7 12 1 7 -26 17 -71 26 -88 18
-89 27 -2 13 40 -7 69 -7 79 -1 13 8 12 10 -9 11 -45 4 -49 4 -56 11 -4 4 -17
5 -30 2 -12 -3 -32 -1 -43 6 -12 6 -21 7 -22 3 0 -4 -2 -15 -4 -23 -14 -68
-16 -88 -7 -94 5 -3 56 -13 113 -22 77 -11 108 -21 121 -35 23 -27 55 -130 69
-219 6 -41 17 -82 24 -90 7 -8 18 -65 24 -128 7 -62 16 -135 21 -162 14 -76
73 -187 143 -273 35 -43 69 -95 76 -116 31 -107 -2 -253 -87 -371 -14 -19
-113 -123 -221 -231 -108 -107 -245 -246 -306 -308 -129 -132 -216 -201 -340
-267 -138 -73 -145 -79 -145 -124 0 -36 4 -41 38 -58 59 -30 202 -71 263 -76
40 -3 66 1 95 15 21 10 46 18 55 19 9 0 22 7 29 15 6 8 22 17 33 21 42 13 118
76 213 174 80 82 91 102 77 139 -10 27 -6 34 72 127 45 55 117 130 161 168
138 120 277 268 317 336 54 93 78 179 79 277 0 73 -4 90 -31 145 -17 35 -54
90 -81 123 -66 78 -105 158 -119 242 -15 90 -61 575 -61 639 0 73 -9 78 -136
75 -79 -2 -104 1 -105 11 -1 7 -2 20 -3 28 -1 11 -12 14 -43 12 -45 -2 -48 2
-46 66 1 6 0 12 -1 11 0 -1 -12 -4 -26 -8z m20 -51 c0 -13 -5 -17 -20 -13 -22
6 -27 29 -7 36 18 6 27 -1 27 -23z m312 -128 c-7 -5 -10 -16 -6 -28 6 -18 6
-18 -9 1 -17 23 -14 35 11 35 13 0 14 -2 4 -8z m-248 -62 c25 -27 46 -55 46
-62 0 -7 -8 -1 -18 15 -19 30 -35 36 -25 10 3 -11 -2 -8 -13 6 -9 14 -31 37
-48 52 -28 26 -29 28 -10 29 13 0 40 -20 68 -50z m67 8 c38 -35 83 -98 70 -98
-6 0 -11 4 -11 9 0 5 -21 32 -46 60 -48 53 -54 67 -13 29z m-7 -104 c10 -26 7
-34 -13 -34 -23 0 -35 15 -27 35 7 20 32 19 40 -1z m300 -801 c-10 -10 -19
-10 -46 2 l-33 14 46 -2 c37 -1 44 -4 33 -14z m144 -156 c2 -15 -1 -27 -5 -27
-15 0 -33 23 -33 43 0 30 34 16 38 -16z m-66 -49 c14 -22 16 -22 41 -5 34 22
37 22 37 -7 0 -13 -10 -31 -22 -40 -22 -15 -22 -16 -5 -29 19 -15 22 -33 8
-41 -5 -3 -35 0 -68 7 -46 11 -58 18 -58 33 0 15 6 19 34 16 l34 -2 -17 24
c-17 27 -22 66 -7 66 5 0 15 -10 23 -22z m-12 -135 c0 -3 -7 -14 -16 -24 -16
-17 -13 -49 3 -49 19 1 36 20 37 41 1 31 30 32 34 1 4 -27 -47 -82 -77 -82
-22 0 -51 25 -51 43 0 22 39 77 55 77 8 0 15 -3 15 -7z m-26 -129 c9 -8 16
-19 16 -23 0 -19 -43 -61 -74 -72 -26 -9 -32 -16 -28 -32 8 -31 -53 -79 -92
-73 -17 3 -25 3 -18 0 19 -9 14 -39 -12 -63 -47 -44 -138 -35 -120 13 8 21 66
56 95 57 20 1 18 3 -9 10 -38 11 -38 34 -1 34 13 0 28 6 32 13 14 22 67 43 90
36 20 -6 20 -6 4 10 -24 25 -22 34 19 72 38 37 73 43 98 18z m-341 -293 c-3
-11 14 -15 55 -11 12 1 22 -3 22 -8 0 -17 -49 -35 -79 -29 -32 7 -61 0 -61
-13 0 -13 38 -18 49 -7 8 8 14 8 22 0 7 -7 5 -15 -7 -28 -14 -13 -28 -16 -63
-12 -37 5 -42 4 -24 -5 43 -21 38 -57 -13 -97 -41 -33 -104 -26 -104 11 0 20
44 71 70 80 13 4 13 7 1 21 -11 14 -11 20 -1 32 7 9 19 14 26 11 17 -7 39 20
24 29 -8 5 -4 12 9 22 12 8 25 12 30 8 5 -3 13 -1 16 5 9 14 31 6 28 -9z
m-233 -335 c0 -3 -4 -8 -10 -11 -5 -3 -10 -1 -10 4 0 6 5 11 10 11 6 0 10 -2
10 -4z m-300 -61 c-7 -8 -43 -38 -81 -66 -38 -28 -69 -54 -69 -57 0 -3 5 -1
11 5 9 9 18 8 36 -4 16 -11 38 -14 73 -11 28 3 50 4 50 2 0 -2 -25 -11 -56
-20 -52 -15 -62 -15 -137 0 -45 9 -84 19 -87 23 -3 3 10 2 27 -2 29 -6 43 1
122 55 49 34 95 68 101 76 7 8 15 14 17 14 3 0 0 -7 -7 -15z m-254 -261 c61
-17 87 -41 33 -29 -19 4 -38 11 -44 15 -5 4 -23 12 -40 18 -47 16 -9 14 51 -4z"/>
<path d="M3310 1146 c-10 -13 -9 -17 5 -22 19 -8 45 4 48 21 3 17 -39 17 -53
1z"/>
<path d="M3217 1043 c-15 -14 -6 -24 20 -21 34 4 43 28 11 28 -14 0 -28 -3
-31 -7z"/>
<path d="M3115 946 c-19 -14 -19 -15 -1 -22 20 -8 52 7 49 22 -3 15 -27 15
-48 0z"/>
<path d="M2902 728 c-18 -18 -14 -28 12 -28 25 0 51 22 39 33 -10 11 -38 8
-51 -5z"/>
<path d="M3038 2693 c6 -2 18 -2 25 0 6 3 1 5 -13 5 -14 0 -19 -2 -12 -5z"/>
</g>
</svg>
